<?xml version="1.0" encoding="UTF-8"?>
<svg width="14px" height="14px" viewBox="0 0 14 14" version="1.1" xmlns="http://www.w3.org/2000/svg" xmlns:xlink="http://www.w3.org/1999/xlink">
    <!-- Generator: Sketch 62 (91390) - https://sketch.com -->
    <title>ic-car/16px</title>
    <desc>Created with Sketch.</desc>
    <g id="Icons" stroke="none" stroke-width="1" fill="none" fill-rule="evenodd">
        <g transform="translate(-224.000000, -157.000000)" id="icon/ic-car/16px">
            <g transform="translate(223.000000, 156.000000)">
                <g id="ic-tab-car">
                    <polygon id="Path" points="0 0 16 0 16 16 0 16"></polygon>
                    <g id="icon" transform="translate(1.000000, 0.999960)" fill="#505660">
                        <path d="M11.2777778,0 C11.7483333,0 11.9658148,0.129798264 12.1186114,0.549071191 L14,6.12498766 L14,12.249925 C14,14 13.3254876,14 12.1588209,14 C11.1111446,14 10.5597359,13.4764319 10.5045951,12.4292956 L10.5,12.249925 L3.5,12.249925 C3.5,14 2.39555556,14 1.61777778,14 C0.590617284,13.9778562 0.0525808348,13.3169131 0.00366843034,12.0171707 L0,11.8174183 L0,6.12498766 L1.61777778,0.883791302 C1.7675,0.410566978 2.13942901,0.0622903901 2.59577482,0.00753057211 L2.72222222,0 L11.2777778,0 Z M13,6.933 L1,6.933 L1,11.8174183 C1,12.6969381 1.15285046,12.9581223 1.53769267,12.9954107 L1.61777778,13 L1.8504158,12.9981951 L2.00927361,12.9911337 L2.00927361,12.9911337 L2.07805346,12.98486 C2.41716054,12.9485821 2.49031858,12.8954629 2.49903959,12.3778286 L2.5,11.249925 L11.5,11.249925 L11.5,12.249925 C11.5,12.8342407 11.6024039,12.9812324 12.0561266,12.9982344 L12.6817695,13.0054947 L12.8246221,12.9990376 C13.0596566,12.9725715 13.0089187,12.8498783 13.0009367,12.3624676 L13,6.933 Z M4,8.00003956 C4.55228475,8.00003956 5,8.44775481 5,9.00003956 C5,9.55232431 4.55228475,10.0000396 4,10.0000396 C3.44771525,10.0000396 3,9.55232431 3,9.00003956 C3,8.44775481 3.44771525,8.00003956 4,8.00003956 Z M10,8.00003956 C10.5522847,8.00003956 11,8.44775481 11,9.00003956 C11,9.55232431 10.5522847,10.0000396 10,10.0000396 C9.44771525,10.0000396 9,9.55232431 9,9.00003956 C9,8.44775481 9.44771525,8.00003956 10,8.00003956 Z M11.215,1 L2.72222222,1 C2.68757603,1 2.63832026,1.0345673 2.59978783,1.11224847 L2.57329497,1.17872673 L1.136,5.833 L12.846,5.833 L11.215,1 Z" id="Shape"></path>
                    </g>
                </g>
            </g>
        </g>
    </g>
</svg>