<?xml version="1.0" encoding="UTF-8"?>
<svg width="18px" height="18px" viewBox="0 0 18 18" version="1.1" xmlns="http://www.w3.org/2000/svg" xmlns:xlink="http://www.w3.org/1999/xlink">
    <!-- Generator: Sketch 62 (91390) - https://sketch.com -->
    <title>ic-car/20px</title>
    <desc>Created with Sketch.</desc>
    <g id="Icons" stroke="none" stroke-width="1" fill="none" fill-rule="evenodd">
        <g transform="translate(-223.000000, -637.000000)" fill="#505660" id="icon/ic-car/20px">
            <g transform="translate(222.000000, 636.000000)">
                <g id="icon" transform="translate(1.000000, 0.999960)">
                    <path d="M14.5,3.95580719e-05 C15.105,3.95580719e-05 15.384619,0.16692304 15.5810718,0.705988232 L18,7.8750237 L18,15.7499431 C18,18.0000396 17.1327698,18.0000396 15.6327698,18.0000396 C14.2857573,18.0000396 13.5768033,17.3268805 13.5059079,15.9805624 L13.5,15.7499431 L4.5,15.7499431 C4.5,18.0000396 3.08,18.0000396 2.08,18.0000396 C0.759365079,17.971569 0.0676039305,17.121785 0.00471655329,15.4506876 L0,15.1938631 L0,7.8750237 L2.08,1.13634266 C2.2725,0.527911387 2.75069444,0.0801272025 3.33742477,0.00972172222 L3.5,3.95580719e-05 L14.5,3.95580719e-05 Z M16.7142857,8.9138967 L1.28571429,8.9138967 L1.28571429,15.1938631 C1.28571429,16.3246743 1.48223631,16.6604825 1.97703343,16.7084248 L2.08,16.7143253 L2.37910603,16.7120047 L2.58335179,16.7029258 L2.58335179,16.7029258 L2.67178302,16.6948595 C3.10777783,16.6482165 3.20183817,16.5799204 3.2130509,15.9143907 L3.21428571,14.4642288 L14.7857143,14.4642288 L14.7857143,15.7499431 C14.7857143,16.5012062 14.9173765,16.6901955 15.5007342,16.7120552 L16.3051322,16.7213899 L16.4887998,16.7130879 C16.7909871,16.67906 16.7257526,16.5213117 16.7154901,15.8946408 L16.7142857,8.9138967 Z M5.14285714,10.2858047 C5.85293754,10.2858047 6.42857143,10.8614386 6.42857143,11.571519 C6.42857143,12.2815994 5.85293754,12.8572333 5.14285714,12.8572333 C4.43277675,12.8572333 3.85714286,12.2815994 3.85714286,11.571519 C3.85714286,10.8614386 4.43277675,10.2858047 5.14285714,10.2858047 Z M12.8571429,10.2858047 C13.5672232,10.2858047 14.1428571,10.8614386 14.1428571,11.571519 C14.1428571,12.2815994 13.5672232,12.8572333 12.8571429,12.8572333 C12.1470625,12.8572333 11.5714286,12.2815994 11.5714286,11.571519 C11.5714286,10.8614386 12.1470625,10.2858047 12.8571429,10.2858047 Z M14.4192857,1.28575384 L3.5,1.28575384 C3.45545489,1.28575384 3.39212604,1.33019752 3.34258435,1.4300733 L3.3085221,1.51554535 L1.46057143,7.49961099 L16.5162857,7.49961099 L14.4192857,1.28575384 Z" id="Shape"></path>
                </g>
            </g>
        </g>
    </g>
</svg>