<?xml version="1.0" encoding="UTF-8"?>
<svg width="22px" height="22px" viewBox="0 0 22 22" version="1.1" xmlns="http://www.w3.org/2000/svg" xmlns:xlink="http://www.w3.org/1999/xlink">
    <!-- Generator: Sketch 62 (91390) - https://sketch.com -->
    <title>ic-car/24px</title>
    <desc>Created with Sketch.</desc>
    <g id="Icons" stroke="none" stroke-width="1" fill="none" fill-rule="evenodd">
        <g transform="translate(-220.000000, -1147.000000)" fill="#505660" id="icon/ic-car/24px">
            <g transform="translate(219.000000, 1146.000000)">
                <path d="M18.7222222,1.00000879 C19.4616667,1.00000879 19.8034233,1.20397749 20.0435322,1.86283495 L23,10.6249894 L23,20.2498909 C23,23.0000088 21.940052,23.0000088 20.1067186,23.0000088 C18.46037,23.0000088 17.5938708,22.1772588 17.5072208,20.5317589 L17.5,20.2498909 L6.5,20.2498909 C6.5,23.0000088 4.76444444,23.0000088 3.54222222,23.0000088 C1.92811287,22.9652115 1.08262703,21.9265866 1.00576468,19.8841341 L1,19.5702375 L1,10.6249894 L3.54222222,2.38882369 C3.7775,1.64518547 4.36195988,1.09789369 5.07907472,1.01184255 L5.27777778,1.00000879 L18.7222222,1.00000879 Z M21.4285714,11.8947231 L2.57142857,11.8947231 L2.57142857,19.5702375 C2.57142857,20.9523402 2.81162216,21.3627723 3.41637419,21.4213685 L3.54222222,21.4285802 L3.90779626,21.425744 L4.15742996,21.4146475 L4.15742996,21.4146475 L4.26551258,21.4047888 C4.79839513,21.3477807 4.91335777,21.2643076 4.92706221,20.4508824 L4.92857143,18.6784623 L19.0714286,18.6784623 L19.0714286,20.2498909 C19.0714286,21.1681013 19.2323491,21.3990883 19.9453418,21.4258057 L20.9284949,21.4372148 L21.1529776,21.4270679 C21.5223175,21.3854783 21.4425865,21.1926747 21.4300434,20.4267436 L21.4285714,11.8947231 Z M7.28571429,13.5714995 C8.15359032,13.5714995 8.85714286,14.2750521 8.85714286,15.1429281 C8.85714286,16.0108041 8.15359032,16.7143567 7.28571429,16.7143567 C6.41783825,16.7143567 5.71428571,16.0108041 5.71428571,15.1429281 C5.71428571,14.2750521 6.41783825,13.5714995 7.28571429,13.5714995 Z M16.7142857,13.5714995 C17.5821617,13.5714995 18.2857143,14.2750521 18.2857143,15.1429281 C18.2857143,16.0108041 17.5821617,16.7143567 16.7142857,16.7143567 C15.8464097,16.7143567 15.1428571,16.0108041 15.1428571,15.1429281 C15.1428571,14.2750521 15.8464097,13.5714995 16.7142857,13.5714995 Z M18.6235714,2.57143736 L5.27777778,2.57143736 C5.22333375,2.57143736 5.14593183,2.62575741 5.08538088,2.74782781 L5.04374923,2.85229365 L2.78514286,10.1661516 L21.1865714,10.1661516 L18.6235714,2.57143736 Z" id="Shape"></path>
            </g>
        </g>
    </g>
</svg>