<?xml version="1.0" encoding="UTF-8"?>
<svg width="14px" height="14px" viewBox="0 0 14 14" version="1.1" xmlns="http://www.w3.org/2000/svg" xmlns:xlink="http://www.w3.org/1999/xlink">
    <!-- Generator: Sketch 62 (91390) - https://sketch.com -->
    <title>ic-flight/16px</title>
    <desc>Created with Sketch.</desc>
    <g id="Icons" stroke="none" stroke-width="1" fill="none" fill-rule="evenodd">
        <g transform="translate(-66.000000, -157.000000)" fill="#505660" id="icon/ic-flight/16px">
            <g transform="translate(65.000000, 156.000000)">
                <path d="M14.685,7.37250663 L9.99999976,4.99843553 L9.99999976,2.99921777 C9.99999976,1.89508028 9.1045695,1 7.99999976,1 C6.8954305,1 5.99999976,1.89508028 5.99999976,2.99921777 L5.99999976,4.99843553 L1.315,7.37250663 C1.12463948,7.44829063 0.999801643,7.63250297 0.999999764,7.83732476 L0.999999764,10.336347 C0.999999764,10.6123813 1.22385763,10.8361514 1.49999976,10.8361514 C1.54930173,10.8350148 1.59816401,10.8265935 1.645,10.8111612 L5.99999976,8.99687106 L5.99999976,11.4958933 L4.275,12.3555569 C4.1052481,12.4410562 3.99867717,12.6153768 3.99999976,12.8053809 L3.99999976,14.4947199 C3.99999976,14.7707543 4.22385763,14.9945244 4.49999976,14.9945244 C4.54638089,15.0018252 4.59361911,15.0018252 4.64,14.9945244 L7.99999976,13.9949155 L11.36,14.9945244 C11.4063809,15.0018252 11.4536191,15.0018252 11.4999998,14.9945244 C11.7761424,14.9945244 11.9999998,14.7707543 11.9999998,14.4947199 L11.9999998,12.8053809 C12.0013228,12.6153768 11.8947519,12.4410562 11.725,12.3555569 L9.99999976,11.4958933 L9.99999976,8.99687106 L14.355,10.8011651 C14.401836,10.8165974 14.4506983,10.8250187 14.4999998,10.8261553 C14.7761424,10.8261553 14.9999998,10.6023852 14.9999998,10.3263509 L14.9999998,7.82732867 C14.9961546,7.62616251 14.8720116,7.44691497 14.685,7.37250663 Z M14,9.57164617 L9,7.49745774 L9,12.1156508 L11,13.1152597 L11,13.82998 L8,12.9553222 L5,13.82998 L5,13.1152597 L7,12.1156508 L7,7.49745774 L2,9.57164617 L2,8.14720351 L7,5.61319499 L7,2.99921777 C7,2.44714902 7.44771525,1.99960888 8,1.99960888 C8.55228475,1.99960888 9,2.44714902 9,2.99921777 L9,5.61319499 L14,8.14720351 L14,9.57164617 Z" id="Fill"></path>
            </g>
        </g>
    </g>
</svg>