<?xml version="1.0" encoding="UTF-8"?>
<svg width="18px" height="18px" viewBox="0 0 18 18" version="1.1" xmlns="http://www.w3.org/2000/svg" xmlns:xlink="http://www.w3.org/1999/xlink">
    <!-- Generator: Sketch 62 (91390) - https://sketch.com -->
    <title>ic-flight/20px</title>
    <desc>Created with Sketch.</desc>
    <g id="Icons" stroke="none" stroke-width="1" fill="none" fill-rule="evenodd">
        <g transform="translate(-64.000000, -637.000000)" fill="#505660" id="icon/ic-flight/20x">
            <g transform="translate(63.000000, 636.000000)">
                <path d="M18.35625,9.21875 L12.5,6.25 L12.5,3.75 C12.5,2.36928813 11.3807119,1.25 10,1.25 C8.61928813,1.25 7.5,2.36928813 7.5,3.75 L7.5,6.25 L1.64375,9.21875 C1.40579935,9.31351706 1.24975205,9.54387259 1.2499997,9.8 L1.2499997,12.925 C1.2499997,13.270178 1.52982203,13.55 1.875,13.55 C1.93662716,13.5485786 1.99770502,13.538048 2.05625,13.51875 L7.5,11.25 L7.5,14.375 L5.34375,15.45 C5.13156013,15.556916 4.99834646,15.774902 5,16.0125 L5,18.125 C5,18.470178 5.27982203,18.75 5.625,18.75 C5.68297612,18.7591296 5.74202388,18.7591296 5.8,18.75 L10,17.5 L14.2,18.75 C14.2579761,18.7591296 14.3170239,18.7591296 14.375,18.75 C14.720178,18.75 15,18.470178 15,18.125 L15,16.0125 C15.0016535,15.774902 14.8684399,15.556916 14.65625,15.45 L12.5,14.375 L12.5,11.25 L17.94375,13.50625 C18.002295,13.525548 18.0633728,13.5360786 18.125,13.5375 C18.470178,13.5375 18.7499997,13.257678 18.7499997,12.9125 L18.7499997,9.7875 C18.7451933,9.53594391 18.5900145,9.31179682 18.35625,9.21875 Z M17.5,11.96875 L11.25,9.375 L11.25,15.15 L13.75,16.4 L13.75,17.29375 L10,16.2 L6.25,17.29375 L6.25,16.4 L8.75,15.15 L8.75,9.375 L2.5,11.96875 L2.5,10.1875 L8.75,7.01875 L8.75,3.75 C8.75,3.05964406 9.30964406,2.5 10,2.5 C10.6903559,2.5 11.25,3.05964406 11.25,3.75 L11.25,7.01875 L17.5,10.1875 L17.5,11.96875 Z" id="Fill"></path>
            </g>
        </g>
    </g>
</svg>