<?xml version="1.0" encoding="UTF-8"?>
<svg width="22px" height="22px" viewBox="0 0 22 22" version="1.1" xmlns="http://www.w3.org/2000/svg" xmlns:xlink="http://www.w3.org/1999/xlink">
    <!-- Generator: Sketch 62 (91390) - https://sketch.com -->
    <title>ic-flight/24px</title>
    <desc>Created with Sketch.</desc>
    <g id="Icons" stroke="none" stroke-width="1" fill="none" fill-rule="evenodd">
        <g transform="translate(-62.000000, -1147.000000)" fill="#505660" id="icon/ic-flight/24px">
            <g transform="translate(61.000000, 1146.000000)">
                <path d="M22.0275,11.0625 L14.9999996,7.5 L14.9999996,4.5 C14.9999996,2.84314575 13.6568542,1.5 11.9999996,1.5 C10.3431458,1.5 8.99999965,2.84314575 8.99999965,4.5 L8.99999965,7.5 L1.9725,11.0625 C1.68695922,11.1762205 1.49970246,11.4526471 1.49999965,11.76 L1.49999965,15.51 C1.49999965,15.9242136 1.83578644,16.26 2.25,16.26 C2.32395259,16.2582944 2.39724602,16.2456576 2.4675,16.2225 L8.99999965,13.5 L8.99999965,17.25 L6.4125,18.54 C6.15787215,18.6682991 5.99801575,18.9298824 5.99999965,19.215 L5.99999965,21.75 C5.99999965,22.1642136 6.33578644,22.5 6.75,22.5 C6.81957134,22.5109556 6.89042866,22.5109556 6.96,22.5 L11.9999996,21 L17.04,22.5 C17.1095713,22.5109556 17.1804287,22.5109556 17.25,22.5 C17.6642136,22.5 17.9999996,22.1642136 17.9999996,21.75 L17.9999996,19.215 C18.0019843,18.9298824 17.8421278,18.6682991 17.5875,18.54 L14.9999996,17.25 L14.9999996,13.5 L21.5325,16.2075 C21.602754,16.2306576 21.6760474,16.2432944 21.75,16.245 C22.1642136,16.245 22.4999996,15.9092136 22.4999996,15.495 L22.4999996,11.745 C22.4942319,11.4431327 22.3080174,11.1741562 22.0275,11.0625 Z M21,14.3625 L13.5,11.25 L13.5,18.18 L16.5,19.68 L16.5,20.7525 L12,19.44 L7.5,20.7525 L7.5,19.68 L10.5,18.18 L10.5,11.25 L3,14.3625 L3,12.225 L10.5,8.4225 L10.5,4.5 C10.5,3.67157288 11.1715729,3 12,3 C12.8284271,3 13.5,3.67157288 13.5,4.5 L13.5,8.4225 L21,12.225 L21,14.3625 Z" id="Fill"></path>
            </g>
        </g>
    </g>
</svg>