<?xml version="1.0" encoding="UTF-8"?>
<svg width="14px" height="14px" viewBox="0 0 14 14" version="1.1" xmlns="http://www.w3.org/2000/svg" xmlns:xlink="http://www.w3.org/1999/xlink">
    <!-- Generator: Sketch 62 (91390) - https://sketch.com -->
    <title>ic-hotel/16px</title>
    <desc>Created with Sketch.</desc>
    <g id="Icons" stroke="none" stroke-width="1" fill="none" fill-rule="evenodd">
        <g transform="translate(-145.000000, -157.000000)" fill="#505660" id="icon/ic-hotel/16px">
            <g transform="translate(144.000000, 156.000000)">
                <path d="M14,14 L14,7 C14,6.44771525 13.5522847,6 13,6 L11,6 L11,2 C11,1.44771525 10.5522847,1 10,1 L3,1 C2.44771525,1 2,1.44771525 2,2 L2,14 L1,14 L1,15 L15,15 L15,14 L14,14 Z M3,2 L10,2 L10,14 L3,14 L3,2 Z M11,14 L11,7 L13,7 L13,14 L11,14 Z M5,4 L6,4 L6,6 L5,6 L5,4 Z M5,7 L6,7 L6,9 L5,9 L5,7 Z M7,4 L8,4 L8,6 L7,6 L7,4 Z M7,7 L8,7 L8,9 L7,9 L7,7 Z M5,10 L6,10 L6,12 L5,12 L5,10 Z M7,10 L8,10 L8,12 L7,12 L7,10 Z" id="Fill"></path>
            </g>
        </g>
    </g>
</svg>