<?xml version="1.0" encoding="UTF-8"?>
<svg width="18px" height="18px" viewBox="0 0 18 18" version="1.1" xmlns="http://www.w3.org/2000/svg" xmlns:xlink="http://www.w3.org/1999/xlink">
    <!-- Generator: Sketch 62 (91390) - https://sketch.com -->
    <title>ic-hotel/20px</title>
    <desc>Created with Sketch.</desc>
    <g id="Icons" stroke="none" stroke-width="1" fill="none" fill-rule="evenodd">
        <g transform="translate(-143.000000, -637.000000)" fill="#505660" id="icon/ic-hotel/20px">
            <g transform="translate(142.000000, 636.000000)">
                <path d="M17.5,17.5 L17.5,8.75 C17.5,8.05964406 16.9403559,7.5 16.25,7.5 L13.75,7.5 L13.75,2.5 C13.75,1.80964406 13.1903559,1.25 12.5,1.25 L3.75,1.25 C3.05964406,1.25 2.5,1.80964406 2.5,2.5 L2.5,17.5 L1.25,17.5 L1.25,18.75 L18.75,18.75 L18.75,17.5 L17.5,17.5 Z M3.75,2.5 L12.5,2.5 L12.5,17.5 L3.75,17.5 L3.75,2.5 Z M13.75,17.5 L13.75,8.75 L16.25,8.75 L16.25,17.5 L13.75,17.5 Z M6.25,5 L7.5,5 L7.5,7.5 L6.25,7.5 L6.25,5 Z M6.25,8.75 L7.5,8.75 L7.5,11.25 L6.25,11.25 L6.25,8.75 Z M8.75,5 L10,5 L10,7.5 L8.75,7.5 L8.75,5 Z M8.75,8.75 L10,8.75 L10,11.25 L8.75,11.25 L8.75,8.75 Z M6.25,12.5 L7.5,12.5 L7.5,15 L6.25,15 L6.25,12.5 Z M8.75,12.5 L10,12.5 L10,15 L8.75,15 L8.75,12.5 Z" id="Fill"></path>
            </g>
        </g>
    </g>
</svg>