<?xml version="1.0" encoding="UTF-8"?>
<svg width="22px" height="22px" viewBox="0 0 22 22" version="1.1" xmlns="http://www.w3.org/2000/svg" xmlns:xlink="http://www.w3.org/1999/xlink">
    <!-- Generator: Sketch 62 (91390) - https://sketch.com -->
    <title>ic-hotel/24px</title>
    <desc>Created with Sketch.</desc>
    <g id="Icons" stroke="none" stroke-width="1" fill="none" fill-rule="evenodd">
        <g transform="translate(-141.000000, -1147.000000)" fill="#505660" id="icon/ic-hotel/24px">
            <g transform="translate(140.000000, 1146.000000)">
                <path d="M21,21 L21,10.5 C21,9.67157288 20.3284271,9 19.5,9 L16.5,9 L16.5,3 C16.5,2.17157288 15.8284271,1.5 15,1.5 L4.5,1.5 C3.67157288,1.5 3,2.17157288 3,3 L3,21 L1.5,21 L1.5,22.5 L22.5,22.5 L22.5,21 L21,21 Z M4.5,3 L15,3 L15,21 L4.5,21 L4.5,3 Z M16.5,21 L16.5,10.5 L19.5,10.5 L19.5,21 L16.5,21 Z M7.5,6 L9,6 L9,9 L7.5,9 L7.5,6 Z M7.5,10.5 L9,10.5 L9,13.5 L7.5,13.5 L7.5,10.5 Z M10.5,6 L12,6 L12,9 L10.5,9 L10.5,6 Z M10.5,10.5 L12,10.5 L12,13.5 L10.5,13.5 L10.5,10.5 Z M7.5,15 L9,15 L9,18 L7.5,18 L7.5,15 Z M10.5,15 L12,15 L12,18 L10.5,18 L10.5,15 Z" id="Fill"></path>
            </g>
        </g>
    </g>
</svg>