<?xml version="1.0" encoding="UTF-8"?>
<svg width="28px" height="28px" viewBox="0 0 28 28" version="1.1" xmlns="http://www.w3.org/2000/svg" xmlns:xlink="http://www.w3.org/1999/xlink">
    <!-- Generator: Sketch 62 (91390) - https://sketch.com -->
    <title>ic-hotel/32px</title>
    <desc>Created with Sketch.</desc>
    <g id="Icons" stroke="none" stroke-width="1" fill="none" fill-rule="evenodd">
        <g transform="translate(-138.000000, -1653.000000)" fill="#505660" id="icon/ic-hotel/32px">
            <g transform="translate(136.000000, 1651.000000)">
                <path d="M28,28 L28,14 C28,12.8954305 27.1045695,12 26,12 L22,12 L22,4 C22,2.8954305 21.1045695,2 20,2 L6,2 C4.8954305,2 4,2.8954305 4,4 L4,28 L2,28 L2,30 L30,30 L30,28 L28,28 Z M6,4 L20,4 L20,28 L6,28 L6,4 Z M22,28 L22,14 L26,14 L26,28 L22,28 Z M10,8 L12,8 L12,12 L10,12 L10,8 Z M10,14 L12,14 L12,18 L10,18 L10,14 Z M14,8 L16,8 L16,12 L14,12 L14,8 Z M14,14 L16,14 L16,18 L14,18 L14,14 Z M10,20 L12,20 L12,24 L10,24 L10,20 Z M14,20 L16,20 L16,24 L14,24 L14,20 Z" id="Fill"></path>
            </g>
        </g>
    </g>
</svg>